<?xml version="1.0" encoding="UTF-8" standalone="no"?> <svg xmlns:dc="http://purl.org/dc/elements/1.1/" xmlns:cc="http://creativecommons.org/ns#" xmlns:rdf="http://www.w3.org/1999/02/22-rdf-syntax-ns#" xmlns:svg="http://www.w3.org/2000/svg" xmlns="http://www.w3.org/2000/svg" xmlns:sodipodi="http://sodipodi.sourceforge.net/DTD/sodipodi-0.dtd" xmlns:inkscape="http://www.inkscape.org/namespaces/inkscape" role="img" viewBox="-9.54 -9.54 960.00003 480" version="1.1" id="svg64" sodipodi:docname="coil.svg" width="960" height="480" inkscape:version="1.0.2 (e86c8708, 2021-01-15)"><metadata id="metadata70"></metadata><defs id="defs68"></defs><g fill="#2d333a" id="g62" transform="translate(231.81025,130.46003)"><ellipse cx="386.10999" cy="21.35" rx="22.139999" ry="21.059999" id="ellipse58"></ellipse><path d="m 369.34,71.58 v 120.2 c 0,6.52 8.72,8.22 17.43,8.22 8.71,0 17.44,-1.7 17.44,-8.22 V 71.58 c 0,-8.69 -8.72,-9.91 -17.44,-9.92 -8.72,-0.01 -17.43,1.21 -17.43,9.92 z M 442.43,9.92 v 181.86 c 0,6.52 8.72,8.22 17.44,8.22 8.72,0 17.43,-1.7 17.43,-8.22 V 9.92 C 477.3,1.23 468.59,0.01 459.87,0 451.15,-0.01 442.43,1.21 442.43,9.92 Z M 192.46,128.59 c 0,-37.81 30.19,-71.51 73.76,-71.51 43.39,0 74.33,33.15 74.33,71.26 0,41.12 -34.25,71.66 -73.92,71.66 -43.87,0 -74.17,-33.68 -74.17,-71.41 z m 73.74,42.32 c 23.21,0 40.61,-19.12 40.61,-42.63 0,-23.51 -17.4,-42.14 -40.61,-42.14 -23.21,0 -40.35,18.86 -40.35,42.39 0,23.53 17.15,42.38 40.35,42.38 z m -93.71,-7.73 c 0,18.28 -42.71,36.82 -72.38,36.82 -36.43,0 -70.5,-19.53 -87.9,-50.85 A 98.43,98.43 0 0 1 0,101.35 100.91,100.91 0 0 1 16.29,46.21 C 24.88,33.05 41.18,15.41 69.92,6.05 a 115,115 0 0 1 34.76,-5.76 c 41,0 66.79,28.74 66.79,53.76 0,17.2 -14,41.7 -48.27,41.7 -15.67,0 -21,-6.63 -21,-14.22 0,-10.18 9.52,-22.08 16.38,-22.08 2.9,0 4.65,2.86 10.28,2 5.63,-0.86 8.41,-4.52 8.41,-9.1 0,-8.66 -10.28,-20.29 -32.22,-20.29 a 85.67,85.67 0 0 0 -24.67,4 C 60.86,42.08 50.19,56.08 44.54,64.71 a 67.07,67.07 0 0 0 -10.84,36.64 64.65,64.65 0 0 0 8,31.39 c 11.51,20.64 34.12,33.5 58.39,33.5 33.53,0 42.93,-18 49.69,-20.92 11.98,-5.2 22.71,9.3 22.71,17.86 z" id="path60"></path></g></svg> 