<?xml version="1.0" encoding="UTF-8" standalone="no"?> <svg xmlns:dc="http://purl.org/dc/elements/1.1/" xmlns:cc="http://creativecommons.org/ns#" xmlns:rdf="http://www.w3.org/1999/02/22-rdf-syntax-ns#" xmlns:svg="http://www.w3.org/2000/svg" xmlns="http://www.w3.org/2000/svg" xmlns:sodipodi="http://sodipodi.sourceforge.net/DTD/sodipodi-0.dtd" xmlns:inkscape="http://www.inkscape.org/namespaces/inkscape" role="img" viewBox="12.55 4.05 480 239.99999" version="1.1" id="svg79" sodipodi:docname="GitHub.svg" width="480" height="240" inkscape:version="1.0.2 (e86c8708, 2021-01-15)"><metadata id="metadata85"></metadata><defs id="defs83"></defs><path d="m 141.831,117.038 h -30.267 c -0.781,0 -1.415,0.634 -1.415,1.415 v 14.798 c 0,0.781 0.634,1.416 1.415,1.416 h 11.807 v 18.386 c 0,0 -2.651,0.903 -9.981,0.903 -8.647,0 -20.727,-3.159 -20.727,-29.723 0,-26.569 12.579,-30.065 24.388,-30.065 10.222,0 14.626,1.8 17.428,2.667 0.881,0.269 1.695,-0.607 1.695,-1.388 l 3.377,-14.298 c 0,-0.366 -0.124,-0.806 -0.54,-1.105 -1.138,-0.812 -8.081,-4.697 -25.621,-4.697 -20.205,0 -40.932,8.597 -40.932,49.922 0,41.326 23.73,47.484 43.727,47.484 16.557,0 26.601,-7.075 26.601,-7.075 0.414,-0.228 0.459,-0.807 0.459,-1.072 v -46.153 c 0,-0.781 -0.633,-1.415 -1.414,-1.415 M 297.814,80.299 c 0,-0.787 -0.624,-1.423 -1.405,-1.423 h -17.042 c -0.779,0 -1.411,0.636 -1.411,1.423 l 0.004,32.935 H 251.396 V 80.299 c 0,-0.787 -0.627,-1.423 -1.407,-1.423 h -17.041 c -0.775,0 -1.407,0.636 -1.407,1.423 v 89.178 c 0,0.786 0.632,1.426 1.407,1.426 h 17.041 c 0.78,0 1.407,-0.64 1.407,-1.426 v -38.145 h 26.564 l -0.046,38.145 c 0,0.786 0.631,1.426 1.412,1.426 h 17.082 c 0.78,0 1.404,-0.64 1.406,-1.426 z M 173.99,92.001 c 0,-6.136 -4.92,-11.095 -10.99,-11.095 -6.064,0 -10.987,4.959 -10.987,11.095 0,6.13 4.923,11.103 10.987,11.103 6.07,0 10.99,-4.973 10.99,-11.103 m -1.218,58.664 V 109.5 c 0,-0.781 -0.63,-1.42 -1.41,-1.42 h -16.988 c -0.78,0 -1.477,0.803 -1.477,1.585 v 58.977 c 0,1.732 1.08,2.248 2.478,2.248 h 15.306 c 1.679,0 2.091,-0.825 2.091,-2.276 z m 189.81,-42.451 h -16.911 c -0.776,0 -1.407,0.639 -1.407,1.426 v 43.726 c 0,0 -4.297,3.144 -10.395,3.144 -6.098,0 -7.716,-2.767 -7.716,-8.738 V 109.64 c 0,-0.787 -0.63,-1.426 -1.406,-1.426 h -17.164 c -0.774,0 -1.409,0.639 -1.409,1.426 v 41.019 c 0,17.735 9.884,22.074 23.481,22.074 11.156,0 20.15,-6.163 20.15,-6.163 0,0 0.427,3.248 0.622,3.633 0.193,0.384 0.698,0.772 1.244,0.772 l 10.919,-0.048 c 0.774,0 1.409,-0.64 1.409,-1.424 l -0.006,-59.863 c 0,-0.787 -0.632,-1.426 -1.411,-1.426 m 39.552,48.241 c -5.866,-0.179 -9.845,-2.84 -9.845,-2.84 v -28.241 c 0,0 3.925,-2.406 8.741,-2.836 6.09,-0.545 11.958,1.294 11.958,15.822 0,15.319 -2.648,18.343 -10.854,18.095 m 6.67,-50.245 c -9.605,0 -16.138,4.286 -16.138,4.286 V 80.298 c 0,-0.787 -0.63,-1.423 -1.406,-1.423 h -17.091 c -0.777,0 -1.408,0.636 -1.408,1.423 v 89.178 c 0,0.787 0.631,1.428 1.41,1.428 h 11.858 c 0.534,0 0.938,-0.277 1.237,-0.759 0.295,-0.479 0.72,-4.111 0.72,-4.111 0,0 6.988,6.622 20.217,6.622 15.532,0 24.439,-7.877 24.439,-35.366 0,-27.488 -14.226,-31.08 -23.838,-31.08 m -187.052,1.862 h -12.784 l -0.019,-16.889 c 0,-0.639 -0.329,-0.959 -1.069,-0.959 h -17.42 c -0.677,0 -1.041,0.299 -1.041,0.95 v 17.452 c 0,0 -8.73,2.107 -9.32,2.278 -0.588,0.17 -1.021,0.712 -1.021,1.359 v 10.967 c 0,0.788 0.63,1.425 1.409,1.425 h 8.932 v 26.384 c 0,19.596 13.746,21.521 23.021,21.521 4.239,0 9.309,-1.361 10.146,-1.67 0.506,-0.186 0.801,-0.71 0.801,-1.278 l 0.014,-12.065 c 0,-0.787 -0.665,-1.424 -1.413,-1.424 -0.745,0 -2.651,0.303 -4.613,0.303 -6.279,0 -8.407,-2.919 -8.407,-6.698 0,-3.777 -10e-4,-25.073 -10e-4,-25.073 h 12.785 c 0.779,0 1.411,-0.637 1.411,-1.425 v -13.737 c 0,-0.787 -0.632,-1.421 -1.411,-1.421" fill="#2e2d2d" id="path77"></path></svg> 