<?xml version="1.0" encoding="UTF-8" standalone="no"?> <svg xmlns:dc="http://purl.org/dc/elements/1.1/" xmlns:cc="http://creativecommons.org/ns#" xmlns:rdf="http://www.w3.org/1999/02/22-rdf-syntax-ns#" xmlns:svg="http://www.w3.org/2000/svg" xmlns="http://www.w3.org/2000/svg" xmlns:sodipodi="http://sodipodi.sourceforge.net/DTD/sodipodi-0.dtd" xmlns:inkscape="http://www.inkscape.org/namespaces/inkscape" id="Layer_1" x="0px" y="0px" viewBox="0 0 500 250" xml:space="preserve" version="1.1" sodipodi:docname="ibm.svg" width="500" height="250" inkscape:version="1.0.2 (e86c8708, 2021-01-15)"><metadata id="metadata96"></metadata><defs id="defs94"></defs> <style type="text/css" id="style7"> .st0{fill:#4094D0;} .st1{fill:#EE4636;} .st2{fill:#FFC10E;} .st3{fill:#2FB355;} .st4{fill:none;} .st5{fill-rule:evenodd;clip-rule:evenodd;} .st6{fill-rule:evenodd;clip-rule:evenodd;fill:#E82D3C;} .st7{fill:#4F81C2;} .st8{fill:#F25022;} .st9{fill:#80BA01;} .st10{fill:#777777;} .st11{fill:#02A4EF;} .st12{fill:#FFB902;} .st13{fill:#263C8D;} .st14{fill:#1853A3;} .st15{fill:#54565A;} .st16{fill:#808080;} .st17{fill:#0085C3;} .st18{fill:#4666A9;} .st19{fill:#006BB6;} .st20{fill-rule:evenodd;clip-rule:evenodd;fill:#2C348A;} .st21{fill:#F58220;} .st22{fill:#0058A9;} .st23{fill-rule:evenodd;clip-rule:evenodd;fill:#EC1C24;} .st24{fill:#ED1A3B;} </style> <g id="g89" transform="translate(50)"> <g id="g138" transform="translate(13.145,2.5)"><path class="st7" d="m 388.17,178.08 c 2.25,0 4.18,0.78 5.76,2.38 1.59,1.58 2.38,3.5 2.38,5.74 0,2.26 -0.79,4.18 -2.38,5.78 -1.58,1.6 -3.49,2.39 -5.76,2.39 -2.25,0 -4.18,-0.79 -5.75,-2.39 -1.58,-1.59 -2.37,-3.52 -2.37,-5.78 0,-2.24 0.78,-4.15 2.38,-5.74 1.58,-1.59 3.5,-2.38 5.74,-2.38 z m 9.46,8.1 c 0,-2.59 -0.92,-4.82 -2.76,-6.65 -1.84,-1.84 -4.08,-2.75 -6.69,-2.75 -2.6,0 -4.82,0.92 -6.65,2.75 -1.85,1.84 -2.76,4.06 -2.76,6.65 0,2.63 0.91,4.86 2.73,6.7 1.84,1.84 4.07,2.78 6.68,2.78 2.62,0 4.85,-0.93 6.69,-2.78 1.84,-1.85 2.76,-4.09 2.76,-6.7 z m -6.94,-2.03 c 0,0.78 -0.36,1.32 -1.08,1.6 -0.39,0.15 -0.97,0.22 -1.75,0.22 h -1.66 v -3.7 h 1.57 c 1.02,0 1.76,0.13 2.23,0.38 0.47,0.26 0.69,0.76 0.69,1.5 z m -6.32,-3.16 v 10.35 h 1.83 v -4.06 h 1.45 c 0.97,0 1.65,0.11 2.04,0.33 0.65,0.4 0.98,1.18 0.98,2.38 v 0.81 l 0.03,0.33 c 0.02,0.05 0.02,0.09 0.03,0.12 0,0.03 0.02,0.07 0.03,0.1 h 1.71 l -0.06,-0.13 c -0.05,-0.09 -0.08,-0.27 -0.09,-0.54 -0.02,-0.27 -0.02,-0.53 -0.02,-0.78 v -0.75 c 0,-0.54 -0.19,-1.06 -0.56,-1.61 -0.38,-0.55 -0.96,-0.89 -1.76,-1.02 0.64,-0.1 1.14,-0.27 1.5,-0.5 0.66,-0.44 1,-1.12 1,-2.04 0,-1.31 -0.54,-2.18 -1.61,-2.63 -0.6,-0.24 -1.55,-0.37 -2.83,-0.37 h -3.67 z" id="path9"></path><g id="g87"> <polygon class="st7" points="2.37,49.34 74.13,49.34 74.13,58.68 2.37,58.68 " id="polygon11"></polygon> <polygon class="st7" points="2.37,68.96 74.13,68.96 74.13,78.26 2.37,78.26 " id="polygon13"></polygon> <polygon class="st7" points="22.86,88.51 53.64,88.51 53.64,97.85 22.86,97.85 " id="polygon15"></polygon> <polygon class="st7" points="22.86,108.1 53.64,108.1 53.64,117.39 22.86,117.39 " id="polygon17"></polygon> <polygon class="st7" points="22.86,127.63 53.64,127.63 53.64,136.96 22.86,136.96 " id="polygon19"></polygon> <polygon class="st7" points="22.86,147.19 53.64,147.19 53.64,156.57 22.86,156.57 " id="polygon21"></polygon> <polygon class="st7" points="2.37,166.78 74.13,166.78 74.13,176.11 2.37,176.11 " id="polygon23"></polygon> <polygon class="st7" points="2.37,186.36 74.13,186.36 74.13,195.66 2.37,195.66 " id="polygon25"></polygon> <path class="st7" d="m 84.34,68.96 h 110.59 c 0.95,1.69 2.77,7.07 3.19,9.3 H 84.34 Z" id="path27"></path> <polygon class="st7" points="104.89,88.51 135.59,88.51 135.59,97.85 104.89,97.85 " id="polygon29"></polygon> <path class="st7" d="m 166.35,88.51 h 32.79 c 0.1,2.17 -0.79,7.24 -1.41,9.34 h -31.39 v -9.34 z" id="path31"></path> <path class="st7" d="m 104.89,127.63 h 78.98 c 2.47,1.7 6.53,6.59 8.53,9.33 h -87.51 z" id="path33"></path> <polygon class="st7" points="104.89,147.19 135.59,147.19 135.59,156.57 104.89,156.57 " id="polygon35"></polygon> <path class="st7" d="m 166.35,147.19 h 31.2 c 0.68,1.44 1.68,7.34 1.78,9.38 h -32.98 z" id="path37"></path> <path class="st7" d="m 84.34,166.78 h 113.69 c -0.16,2.34 -1.92,7.57 -2.87,9.33 H 84.34 Z" id="path39"></path> <path class="st7" d="m 84.34,186.36 h 102.8 c -9.11,7.64 -17.16,9.3 -31.27,9.3 H 145.7 84.34 Z" id="path41"></path> <polygon class="st7" points="207.37,49.34 265.97,49.34 269.06,58.68 207.37,58.68 " id="polygon43"></polygon> <polygon class="st7" points="207.37,68.96 272.45,68.96 275.52,78.26 207.37,78.26 " id="polygon45"></polygon> <polygon class="st7" points="227.85,88.51 278.96,88.51 282.04,97.85 227.85,97.85 " id="polygon47"></polygon> <polygon class="st7" points="293.3,108.1 350.85,108.1 350.85,117.39 320.1,117.39 320.1,109.19 317.28,117.39 290.22,117.39 " id="polygon49"></polygon> <polygon class="st7" points="288.53,117.39 261.42,117.39 258.61,109.15 258.61,117.39 227.85,117.39 227.85,108.1 285.44,108.1 " id="polygon51"></polygon> <polygon class="st7" points="227.85,127.63 258.61,127.63 258.61,136.96 227.85,136.96 " id="polygon53"></polygon> <polygon class="st7" points="227.85,147.19 258.61,147.19 258.61,156.57 227.85,156.57 " id="polygon55"></polygon> <polygon class="st7" points="207.37,166.78 258.61,166.78 258.61,176.11 207.37,176.11 " id="polygon57"></polygon> <polygon class="st7" points="207.37,186.36 258.61,186.36 258.61,195.66 207.37,195.66 " id="polygon59"></polygon> <polygon class="st7" points="312.81,49.34 371.34,49.34 371.34,58.68 309.67,58.68 " id="polygon61"></polygon> <polygon class="st7" points="306.3,68.96 371.34,68.96 371.34,78.26 303.21,78.26 " id="polygon63"></polygon> <polygon class="st7" points="299.79,88.51 350.85,88.51 350.85,97.85 296.7,97.85 " id="polygon65"></polygon> <polygon class="st7" points="320.1,127.63 350.85,127.63 350.85,136.96 320.1,136.96 " id="polygon67"></polygon> <polygon class="st7" points="320.1,147.19 350.85,147.19 350.85,156.57 320.1,156.57 " id="polygon69"></polygon> <polygon class="st7" points="320.1,166.78 371.34,166.78 371.34,176.11 320.1,176.11 " id="polygon71"></polygon> <polygon class="st7" points="320.1,186.36 371.34,186.36 371.34,195.66 320.1,195.66 " id="polygon73"></polygon> <polygon class="st7" points="264.89,127.63 313.86,127.63 310.68,136.96 268.08,136.96 " id="polygon75"></polygon> <polygon class="st7" points="271.52,147.19 307.22,147.19 304.05,156.57 274.69,156.57 " id="polygon77"></polygon> <polygon class="st7" points="278.14,166.78 300.58,166.78 297.41,176.11 281.33,176.11 " id="polygon79"></polygon> <polygon class="st7" points="284.79,186.36 293.98,186.36 290.79,195.66 287.95,195.66 " id="polygon81"></polygon> <path class="st7" d="m 104.89,117.41 h 78.98 c 2.58,-1.78 7.29,-6.7 9.2,-9.31 h -88.18 z" id="path83"></path> <path class="st7" d="m 84.34,58.68 h 102.8 c -9.11,-7.63 -17.16,-9.3 -31.27,-9.3 H 145.7 84.34 Z" id="path85"></path> </g></g> </g> </svg> 