<?xml version="1.0" encoding="UTF-8" standalone="no"?> <svg xmlns:dc="http://purl.org/dc/elements/1.1/" xmlns:cc="http://creativecommons.org/ns#" xmlns:rdf="http://www.w3.org/1999/02/22-rdf-syntax-ns#" xmlns:svg="http://www.w3.org/2000/svg" xmlns="http://www.w3.org/2000/svg" xmlns:sodipodi="http://sodipodi.sourceforge.net/DTD/sodipodi-0.dtd" xmlns:inkscape="http://www.inkscape.org/namespaces/inkscape" role="img" viewBox="-5.91 72.34 480.00002 239.99999" version="1.1" id="svg284" sodipodi:docname="microsoft.svg" width="480" height="240" inkscape:version="1.0.2 (e86c8708, 2021-01-15)"><metadata id="metadata290"></metadata><defs id="defs288"></defs><style id="style272">svg {enable-background:new 0 0 400 245}</style><g id="g297" transform="translate(34.09,69.84)"><path fill="#747474" d="m 141.9,128.9 -2.4,6.7 h -0.2 c -0.4,-1.5 -1.1,-3.8 -2.3,-6.5 L 124.4,97.3 H 112 v 50.6 h 8.2 v -31.2 c 0,-2 0,-4.2 -0.1,-6.9 -0.1,-1.4 -0.2,-2.4 -0.3,-3.2 h 0.2 c 0.4,2 0.9,3.4 1.2,4.3 l 15.2,36.9 h 5.8 l 15.1,-37.3 c 0.3,-0.9 0.7,-2.6 1,-4 h 0.2 c -0.2,3.7 -0.3,7.1 -0.4,9.1 v 32.1 h 8.7 V 97.2 H 154.9 Z M 175,111.4 h 8.5 v 36.3 H 175 Z m 4.3,-15.3 c -1.4,0 -2.6,0.5 -3.6,1.4 -1,0.9 -1.5,2.1 -1.5,3.5 0,1.4 0.5,2.6 1.5,3.5 1,0.9 2.2,1.4 3.6,1.4 1.4,0 2.7,-0.5 3.6,-1.4 1,-0.9 1.5,-2.1 1.5,-3.5 0,-1.4 -0.5,-2.6 -1.5,-3.5 -0.8,-0.9 -2.1,-1.4 -3.6,-1.4 m 34.4,15 c -1.6,-0.3 -3.2,-0.5 -4.8,-0.5 -3.9,0 -7.4,0.9 -10.3,2.6 -2.9,1.7 -5.3,4.1 -6.8,7 -1.6,3 -2.4,6.5 -2.4,10.5 0,3.5 0.8,6.5 2.3,9.4 1.5,2.8 3.6,5 6.4,6.5 2.7,1.5 5.8,2.3 9.4,2.3 4.1,0 7.5,-0.9 10.3,-2.4 l 0.1,-0.1 v -7.9 l -0.3,0.3 c -1.2,0.9 -2.7,1.7 -4.1,2.2 -1.5,0.5 -2.9,0.8 -4.1,0.8 -3.4,0 -6.1,-1 -8,-3.1 -2,-2.1 -2.9,-5 -2.9,-8.6 0,-3.7 1,-6.7 3,-8.8 2,-2.1 4.7,-3.3 8,-3.3 2.8,0 5.6,0.9 8.1,2.8 l 0.3,0.3 v -8.3 l -0.1,-0.1 c -1.1,-0.7 -2.4,-1.3 -4.1,-1.6 m 28.1,-0.3 c -2.1,0 -4.1,0.7 -5.8,2 -1.4,1.2 -2.4,2.9 -3.3,4.9 h -0.1 v -6.4 h -8.5 v 36.3 h 8.5 v -18.5 c 0,-3.1 0.7,-5.8 2.1,-7.7 1.4,-2 3.3,-2.9 5.5,-2.9 0.8,0 1.6,0.2 2.6,0.3 0.9,0.3 1.6,0.5 2,0.9 l 0.3,0.3 v -8.5 l -0.2,-0.1 c -0.5,-0.4 -1.6,-0.6 -3.1,-0.6 m 23.2,-0.2 c -6,0 -10.7,1.8 -14.1,5.2 -3.4,3.5 -5,8.3 -5,14.3 0,5.6 1.7,10.2 5,13.6 3.3,3.3 7.7,5 13.3,5 5.8,0 10.5,-1.8 13.8,-5.3 3.4,-3.5 5,-8.3 5,-14.1 0,-5.8 -1.6,-10.3 -4.8,-13.7 -3,-3.3 -7.6,-5 -13.2,-5 m 6.8,27.9 c -1.6,2 -4.1,3 -7.1,3 -3.1,0 -5.6,-1 -7.3,-3.1 -1.8,-2 -2.6,-5 -2.6,-8.7 0,-3.9 0.9,-6.8 2.6,-8.9 1.8,-2.1 4.2,-3.1 7.3,-3.1 3,0 5.4,1 7.1,3 1.7,2 2.6,5 2.6,8.8 -0.2,3.9 -1,7 -2.6,9 m 30.2,-12 c -2.7,-1.1 -4.4,-2 -5.2,-2.7 -0.7,-0.7 -1,-1.6 -1,-2.8 0,-1 0.4,-2 1.4,-2.6 1,-0.6 2.1,-1 3.7,-1 1.4,0 2.9,0.3 4.4,0.7 1.4,0.4 2.8,1 3.8,1.8 l 0.3,0.3 v -8 l -0.2,-0.1 c -1,-0.4 -2.3,-0.8 -3.9,-1.1 -1.6,-0.3 -3,-0.4 -4.2,-0.4 -4.1,0 -7.4,1 -10,3.1 -2.6,2 -3.9,4.8 -3.9,8 0,1.7 0.3,3.2 0.9,4.5 0.6,1.2 1.4,2.4 2.6,3.4 1.2,0.9 2.9,2 5.2,2.9 2,0.9 3.5,1.5 4.4,2 0.9,0.5 1.5,1.1 2,1.6 0.3,0.5 0.5,1.2 0.5,2 0,2.4 -1.8,3.6 -5.6,3.6 -1.4,0 -2.9,-0.3 -4.7,-0.9 -1.8,-0.6 -3.4,-1.4 -4.8,-2.4 l -0.3,-0.3 v 8.3 l 0.2,0.1 c 1.2,0.6 2.8,1 4.6,1.4 1.8,0.3 3.5,0.6 4.9,0.6 4.4,0 8,-1 10.5,-3.1 2.6,-2.1 4,-4.8 4,-8.3 0,-2.4 -0.7,-4.6 -2.1,-6.2 -1.7,-1.5 -4.1,-3.1 -7.5,-4.4 m 32.2,-15.9 c -6,0 -10.7,1.8 -14.1,5.2 -3.4,3.4 -5,8.3 -5,14.3 0,5.6 1.7,10.2 5,13.6 3.3,3.3 7.7,5 13.3,5 5.8,0 10.5,-1.8 13.8,-5.3 3.4,-3.5 5,-8.3 5,-14.1 0,-5.8 -1.6,-10.3 -4.8,-13.7 -3,-3.3 -7.5,-5 -13.2,-5 m 6.8,27.9 c -1.6,2 -4.1,3 -7.1,3 -3.1,0 -5.6,-1 -7.3,-3.1 -1.8,-2 -2.6,-5 -2.6,-8.7 0,-3.9 0.9,-6.8 2.6,-8.9 1.8,-2.1 4.2,-3.1 7.3,-3.1 2.9,0 5.4,1 7.1,3 1.7,2 2.6,5 2.6,8.8 -0.1,3.9 -1,7 -2.6,9 m 56.8,-20.1 v -7 h -8.6 v -10.7 l -0.3,0.1 -8.1,2.4 -0.2,0.1 v 8.2 h -12.8 v -4.6 c 0,-2.1 0.5,-3.7 1.4,-4.8 0.9,-1 2.3,-1.6 4,-1.6 1.2,0 2.4,0.3 3.8,0.9 l 0.3,0.2 v -7.4 l -0.2,-0.1 c -1.2,-0.4 -2.8,-0.7 -4.8,-0.7 -2.6,0 -4.8,0.6 -6.8,1.6 -2,1.1 -3.5,2.6 -4.6,4.6 -1.1,2 -1.7,4.2 -1.7,6.7 v 5 h -6 v 6.9 h 6 v 29.3 h 8.6 v -29.3 h 12.8 v 18.7 c 0,7.7 3.6,11.5 10.8,11.5 1.2,0 2.4,-0.2 3.6,-0.4 1.2,-0.3 2.2,-0.6 2.7,-0.9 l 0.1,-0.1 v -7 l -0.3,0.3 c -0.5,0.3 -1,0.6 -1.8,0.8 -0.7,0.2 -1.2,0.3 -1.7,0.3 -1.7,0 -2.9,-0.4 -3.7,-1.4 -0.8,-0.9 -1.2,-2.4 -1.2,-4.6 v -17.2 z" id="path274"></path><path fill="#f05225" d="m 2.2,80.3 h 40.1 v 40.1 H 2.2 Z" id="path276"></path><path fill="#7fbb42" d="m 46.6,80.3 h 40.1 v 40.1 H 46.6 Z" id="path278"></path><path fill="#33a0da" d="m 2.2,124.6 h 40.1 v 40.1 H 2.2 Z" id="path280"></path><path fill="#fdb813" d="m 46.6,124.6 h 40.1 v 40.1 H 46.6 Z" id="path282"></path></g></svg> 