<?xml version="1.0" encoding="UTF-8" standalone="no"?> <svg xmlns:dc="http://purl.org/dc/elements/1.1/" xmlns:cc="http://creativecommons.org/ns#" xmlns:rdf="http://www.w3.org/1999/02/22-rdf-syntax-ns#" xmlns:svg="http://www.w3.org/2000/svg" xmlns="http://www.w3.org/2000/svg" xmlns:sodipodi="http://sodipodi.sourceforge.net/DTD/sodipodi-0.dtd" xmlns:inkscape="http://www.inkscape.org/namespaces/inkscape" role="img" viewBox="157.46 156.46 1800 900" version="1.1" id="svg311" sodipodi:docname="netflix.svg" width="1800" height="900" inkscape:version="1.0.2 (e86c8708, 2021-01-15)"><metadata id="metadata317"></metadata><defs id="defs315"></defs><g id="g320" transform="translate(156.9615,228.96)"><path fill="#d8232a" d="m 1136.45,185.802 h -60.09 v 336.07 c 54.61,1.879 108.99,4.634 163.15,8.245 v -59.209 c -34.26,-2.285 -68.61,-4.222 -103.06,-5.826 z m 477.55,0.034 h -66.01 l -43.51,100.851 -39.09,-100.851 h -65.02 l 69.87,180.207 -76.27,176.789 c 21.1,2.058 42.14,4.254 63.16,6.574 l 44.36,-102.791 43.93,113.312 c 22.88,2.942 45.7,6.012 68.48,9.263 l 0.1,-0.039 -78.28,-201.891 z M 870.087,518.935 930.18,518.922 V 382.218 h 81.46 v -59.209 h -81.46 v -77.428 h 107.66 V 185.839 H 870.087 Z M 645.688,245.577 h 62.893 v 276.878 c 19.996,-0.755 40.033,-1.377 60.091,-1.902 V 245.577 h 62.89 V 185.836 H 645.688 Z m -205.44,294.087 c 55.385,-5.033 111.025,-9.181 166.918,-12.4 v -59.216 c -35.711,2.064 -71.321,4.508 -106.827,7.3 v -89.641 c 23.297,-0.232 53.974,-0.943 81.151,-0.605 v -59.214 c -21.712,-0.053 -56.608,0.303 -81.151,0.617 V 245.581 H 607.166 V 185.839 H 440.248 Z M 322.372,402.781 244.107,185.836 h -57.11 v 383.362 c 19.992,-2.846 40.022,-5.571 60.091,-8.185 V 352.542 l 69.591,199.911 c 21.888,-2.538 43.815,-4.942 65.785,-7.202 V 185.836 h -60.092 z m 966.678,130.901 c 20.06,1.535 40.09,3.182 60.1,4.962 V 185.836 h -60.1 v 347.846" id="path309"></path></g></svg> 